<svg xmlns="http://www.w3.org/2000/svg" data-name="Layer 1" viewBox="0 0 722.452 364.196"><path fill="#fff" d="M652.683 296.231H103.374a26.516 26.516 0 0 1-26.486-26.486V61.307a26.517 26.517 0 0 1 26.486-26.487h549.31a26.517 26.517 0 0 1 26.486 26.487v208.438a26.516 26.516 0 0 1-26.487 26.486Z"/><path fill="#e6e6e6" d="M652.683 296.231H103.374a26.516 26.516 0 0 1-26.486-26.486V61.307a26.517 26.517 0 0 1 26.486-26.487h549.31a26.517 26.517 0 0 1 26.486 26.487v208.438a26.516 26.516 0 0 1-26.487 26.486ZM103.374 37.123a24.183 24.183 0 0 0-24.183 24.184v208.438a24.183 24.183 0 0 0 24.183 24.183h549.31a24.183 24.183 0 0 0 24.182-24.183v-78.593A154.029 154.029 0 0 0 522.838 37.123Z"/><ellipse cx="294.666" cy="607.921" fill="#fff" rx="2.825" ry="4.061" transform="rotate(-81.722 20.428 611.985)"/><ellipse cx="321.092" cy="605.343" fill="#3f3d56" rx="2.825" ry="4.061" transform="rotate(-81.722 46.854 609.406)"/><ellipse cx="287.43" cy="586.528" fill="#ff6584" rx="2.825" ry="4.061" transform="rotate(-81.722 13.192 590.591)"/><ellipse cx="278.18" cy="578.336" fill="#e6e6e6" rx="2.567" ry="1.785" transform="rotate(-89.567 23.826 564.678)"/><ellipse cx="274.286" cy="562.013" fill="#3f3d56" rx="2.567" ry="1.785" transform="rotate(-89.567 19.932 548.356)"/><ellipse cx="304.567" cy="590.74" fill="#e6e6e6" rx="2.567" ry="1.785" transform="rotate(-89.567 50.213 577.082)"/><ellipse cx="291.797" cy="597.115" fill="#ff6584" rx="2.567" ry="1.785" transform="rotate(-89.567 37.443 583.458)"/><ellipse cx="309.574" cy="608.9" fill="#3f3d56" rx="2.567" ry="1.785" transform="rotate(-89.567 55.22 595.242)"/><ellipse cx="932.083" cy="274.371" fill="#fff" rx="3.601" ry="5.177" transform="rotate(-75.779 640.564 293.837)"/><ellipse cx="898.239" cy="274.153" fill="#3f3d56" rx="3.601" ry="5.177" transform="rotate(-75.779 606.72 293.619)"/><ellipse cx="938.434" cy="302.45" fill="#ff6584" rx="3.601" ry="5.177" transform="rotate(-75.779 646.915 321.915)"/><ellipse cx="949.079" cy="314.056" fill="#e6e6e6" rx="3.272" ry="2.276" transform="rotate(-83.624 679.94 313.575)"/><ellipse cx="951.862" cy="335.264" fill="#3f3d56" rx="3.272" ry="2.276" transform="rotate(-83.624 682.721 334.781)"/><ellipse cx="917.262" cy="294.848" fill="#e6e6e6" rx="3.272" ry="2.276" transform="rotate(-83.624 648.123 294.367)"/><ellipse cx="934.294" cy="288.45" fill="#ff6584" rx="3.272" ry="2.276" transform="rotate(-83.624 665.155 287.969)"/><ellipse cx="913.311" cy="271.163" fill="#3f3d56" rx="3.272" ry="2.276" transform="rotate(-83.624 644.173 270.682)"/><path fill="#f2f2f2" d="M296.6 161.284a84.29 84.29 0 0 1-21.626 56.497v.011a86.56 86.56 0 0 1-6.242 6.265 83.405 83.405 0 0 1-7.025 5.7q-2.556 1.866-5.25 3.524-3.196 1.987-6.576 3.674-2.505 1.26-5.113 2.349a84.486 84.486 0 0 1-32.786 6.599 84.498 84.498 0 0 1-18.898-2.12 81.105 81.105 0 0 1-8.476-2.418 66.714 66.714 0 0 1-3.201-1.163 83.499 83.499 0 0 1-18.138-9.73 84.618 84.618 0 1 1 133.332-69.188Z"/><path fill="#6383ff" d="M549.859 98.382H403.607a4.606 4.606 0 0 1 0-9.213h146.252a4.606 4.606 0 0 1 0 9.213Z"/><path fill="#e6e6e6" d="M549.859 160.568H403.607a4.606 4.606 0 0 1 0-9.213h146.252a4.606 4.606 0 0 1 0 9.213ZM549.859 222.754H403.607a4.606 4.606 0 0 1 0-9.213h146.252a4.606 4.606 0 0 1 0 9.213ZM184.22 360.175c-16.51-21.962-26.053-46.52-26.366-74.518a6.041 6.041 0 0 1 3.676-7.702l56.278-19.912a6.041 6.041 0 0 1 7.701 3.676l26.367 74.517a6.041 6.041 0 0 1-3.676 7.702l-56.278 19.912a6.041 6.041 0 0 1-7.701-3.675Z"/><path fill="#fff" d="M180.574 336.14c-9.93-10.04-14.181-27.948-16.951-47.907a5.658 5.658 0 0 1 3.443-7.213l48.365-17.113a5.658 5.658 0 0 1 7.213 3.442l23.463 66.311a5.658 5.658 0 0 1-3.443 7.213l-29.962 10.601a25.202 25.202 0 0 1-32.128-15.334Z"/><path fill="#6383ff" d="m223.292 303.071-37.676 13.449a2.4 2.4 0 1 1-1.614-4.521l37.676-13.449a2.4 2.4 0 1 1 1.614 4.521ZM189.48 301.164l-8.289 2.959a2.4 2.4 0 1 1-1.614-4.521l8.289-2.959a2.4 2.4 0 1 1 1.614 4.521ZM230.386 322.947l-37.675 13.448a2.4 2.4 0 0 1-1.614-4.52l37.676-13.449a2.4 2.4 0 0 1 1.613 4.521ZM226.84 313.01l-37.676 13.448a2.4 2.4 0 0 1-1.614-4.522l37.675-13.448a2.4 2.4 0 1 1 1.614 4.521Z"/><path fill="#2f2e41" d="M192.628 123c1.227 9.9 8.086 18.061 18.06 18.061a18.06 18.06 0 0 0 18.06-18.06c0-9.975-8.128-17.139-18.06-18.061-10.538-.978-19.636 5.352-18.06 18.06ZM226.411 244.67a85.234 85.234 0 0 1-33.327-.886c5.194-2.868 20.948-1.106 33.327.886Z"/><path fill="#ffb6b6" d="m156.117 276.438 8.676-20.966 6.835 3.798-4.128 21.327a7.596 7.596 0 1 1-11.383-4.159Z"/><path fill="#6383ff" d="M245.862 219.704v.011a822.676 822.676 0 0 1-1.094 19.589 84.486 84.486 0 0 1-32.786 6.599 84.498 84.498 0 0 1-18.898-2.12 81.105 81.105 0 0 1-8.475-2.418 5.23 5.23 0 0 1 1.243-.587c4.146-1.405.046-2.683.08-4.019.128-4.883 1.475-10.744 3.214-16.364l-7.739 19.807-4.03 10.296s.138 8.89-2.419 6.172c-2.568-2.718-2.384 6.08-2.384 6.08a8.01 8.01 0 0 0-2.027 2.096 1.778 1.778 0 0 0-.241 1.233v.011a1.54 1.54 0 0 0 .645.806c1.738 1.175-.76 4.284-1.866 5.516-.3.334-.495.53-.495.53l-10.63-.76v-.207c.047-1.256.335-7.866 1.981-9.443 1.808-1.74.922-4.492.922-4.492s4.721-4.18 1.554-7.577c-1.266-1.37-.702-9.49.852-19.992 3.398-23.17 11.54-57.948 15.063-57.453a19.547 19.547 0 0 1 13.946-14.901l11.481-3.155 2.05-8.096h16.169l2.81 5.32 11.78 5.32.15.07.368.16.139.438s-.012.012 0 .012l6.552 20.579c2.948 3.386 2.833 23.17 2.085 40.939Z"/><path fill="#ffb6b6" d="m273.394 261.171-10.949-19.873 7.236-2.964 14.072 16.549a7.596 7.596 0 1 1-10.36 6.288Z"/><path fill="#6383ff" d="M236.57 157.348c1.948 3.5 19.758 12.499 16.672 21.534 0 0 16.732 52.348 18.908 52.006s4.299 5.066 4.299 5.066-.462 3.529.895 2.062 1.033 2.378 1.033 2.378-.65 3.393 1.073 2.47-.543 5.571-.543 5.571l-10.355 4.876-1.968-2.929s-4.205-.8-2.226-1.435-1.86-2.769-1.86-2.769-4.017-2.73-3.458-7.25-10.422-13.408-10.422-13.408c-7.55-14.906-11.68-30.21-11.666-45.997Z"/><circle cx="212.685" cy="126.118" r="16.015" fill="#ffb6b6"/><path fill="#2f2e41" d="M196.1 127.863c.508 3.48 3.474 8.336 2.78 8.336s-5.634-14.347-.695-15.282c3.582-.679 4.383-.084 7.731-1.536l-.472.445c2.216 1.612 5.3.618 7.828-.43 2.536-1.043 5.613-2.036 7.836-.431 1.396 1.007 1.986 2.757 2.855 4.244.868 1.493 2.473 2.904 4.126 2.445a3.266 3.266 0 0 0 2.084-3.23c-.007-1.375-1.798-2.684-1.195-3.918 1.787-3.657.18-6.15-3.716-7.87q-2.126-.323-4.252-.66a12.057 12.057 0 0 1 2.668-2.681 6.095 6.095 0 0 0-2.154-2.758 6.76 6.76 0 0 0-3.848-.556l-8.787.459a15.5 15.5 0 0 0-6.349 1.236c-2.417 1.244-4.001 3.668-5.154 6.134-2.584 5.543-2.174 10.003-1.285 16.053Z"/><path fill="#e6e6e6" d="M596.727 117.359h-240.85a1 1 0 0 1 0-2h240.85a1 1 0 0 1 0 2ZM596.727 179.359h-240.85a1 1 0 0 1 0-2h240.85a1 1 0 0 1 0 2ZM596.727 241.358h-240.85a1 1 0 0 1 0-2h240.85a1 1 0 0 1 0 2Z"/><path fill="#e6e6e6" d="M632.576 237.394a36.998 36.998 0 0 1-24.046-8.88c-2.236-1.913-4.617-5.24-7.08-9.886a22.61 22.61 0 0 1-.716-19.52 25.945 25.945 0 0 1-4.285 3.514l-.783.521-.046-.94c-.03-.61-.044-1.219-.044-1.809 0-3.476 2.629-7.003 1.416-10.216-5.11-13.543-21.32-27.001 2.173-47.96 2.173-1.939-.73-5.815-.73-8.748 0-28.748 40.63-78.483 52.146-52.136 14.201 32.492 38.669 29.016 49.508 35.728l.157.474-.463.188a27.945 27.945 0 0 1-7.425 1.975 35.407 35.407 0 0 0 8.279.693l.43-.015.105.419a52.374 52.374 0 0 1 1.555 12.674l-.002.461a23.093 23.093 0 0 0 7.628 17.219 37.084 37.084 0 0 1 12.099 27.364c0 6.095-4.142 14.095-7.617 19.733a11.158 11.158 0 0 1-8.191 5.246 10.897 10.897 0 0 1-8.794-2.84 36.036 36.036 0 0 0 6.355 8.997l.474.488-.589.343a36.971 36.971 0 0 1-18.638 5.033h-.383a36.091 36.091 0 0 0-25.891 10.567 37.28 37.28 0 0 1-26.602 11.313Z"/><path fill="#3f3d56" d="M619.846 295.988a.665.665 0 0 1-.658-.571 222.787 222.787 0 0 1-.31-46.71c2.296-24.513 9.672-59.818 31.766-88.814a.665.665 0 1 1 1.058.807c-21.903 28.745-29.219 63.792-31.5 88.13a221.28 221.28 0 0 0 .304 46.4.666.666 0 0 1-.66.758Z"/><path fill="#3f3d56" d="M637.876 200.793a.665.665 0 0 1-.392-1.204 91.71 91.71 0 0 1 20.247-10.306c11.17-4.09 28.156-7.797 45.643-2.232a.665.665 0 1 1-.404 1.268c-17.128-5.45-33.807-1.805-44.782 2.214a90.203 90.203 0 0 0-19.921 10.133.663.663 0 0 1-.39.127ZM607.422 124.943a.665.665 0 0 1 1.172-.478 91.71 91.71 0 0 1 11.738 19.452c4.883 10.846 9.804 27.521 5.513 45.363a.665.665 0 1 1-1.294-.31c4.203-17.477-.635-33.85-5.433-44.507a90.203 90.203 0 0 0-11.541-19.14.663.663 0 0 1-.155-.38Z"/><path fill="#e6e6e6" d="M63.274 224.082a36.091 36.091 0 0 0-25.891-10.568l-.384.001a36.971 36.971 0 0 1-18.637-5.033l-.589-.343.474-.488a36.036 36.036 0 0 0 6.355-8.998 10.897 10.897 0 0 1-8.794 2.841 11.158 11.158 0 0 1-8.191-5.246C4.142 190.61 0 182.61 0 176.515a37.084 37.084 0 0 1 12.098-27.364 23.093 23.093 0 0 0 7.629-17.219l-.002-.461a52.374 52.374 0 0 1 1.555-12.674l.104-.419.431.015a35.406 35.406 0 0 0 8.28-.693 27.945 27.945 0 0 1-7.426-1.975l-.463-.188.157-.474c10.84-6.712 35.307-3.236 49.508-35.728 11.516-26.347 52.146 23.388 52.146 52.136 0 2.933-2.903 6.81-.73 8.748 23.493 20.959 7.283 34.417 2.173 47.96-1.213 3.213 1.416 6.74 1.416 10.216 0 .59-.015 1.199-.045 1.81l-.045.94-.783-.522a25.944 25.944 0 0 1-4.285-3.514 22.61 22.61 0 0 1-.717 19.52c-2.462 4.646-4.844 7.973-7.079 9.887a36.963 36.963 0 0 1-50.648-2.434Z"/><path fill="#3f3d56" d="M102.606 293.99a.665.665 0 0 0 .658-.572 222.787 222.787 0 0 0 .31-46.71c-2.297-24.513-9.672-59.818-31.766-88.814a.665.665 0 1 0-1.059.807c21.904 28.745 29.22 63.792 31.5 88.13a221.28 221.28 0 0 1-.303 46.4.666.666 0 0 0 .66.758Z"/><path fill="#3f3d56" d="M84.576 198.794a.665.665 0 0 0 .392-1.204 91.71 91.71 0 0 0-20.247-10.306c-11.17-4.09-28.156-7.797-45.643-2.231a.665.665 0 1 0 .404 1.268c17.128-5.451 33.806-1.805 44.782 2.213a90.203 90.203 0 0 1 19.921 10.133.663.663 0 0 0 .39.127ZM115.03 122.944a.665.665 0 0 0-1.172-.478 91.71 91.71 0 0 0-11.738 19.452c-4.883 10.846-9.804 27.521-5.513 45.363a.665.665 0 1 0 1.294-.31c-4.203-17.477.635-33.85 5.433-44.507a90.202 90.202 0 0 1 11.541-19.14.663.663 0 0 0 .155-.38Z"/></svg>